<?xml version="1.0" encoding="utf-8"?>
<!-- Generator: Adobe Illustrator 23.0.0, SVG Export Plug-In . SVG Version: 6.00 Build 0)  -->
<svg version="1.1" id="Layer_1" xmlns="http://www.w3.org/2000/svg" xmlns:xlink="http://www.w3.org/1999/xlink" x="0px" y="0px"
	 viewBox="0 0 48 48" style="enable-background:new 0 0 48 48;" xml:space="preserve">
<style type="text/css">
	.st0{fill:#384D68;}
	.st1{fill:url(#SVGID_1_);}
	.st2{fill:url(#SVGID_2_);}
	.st3{fill:url(#SVGID_3_);}
	.st4{fill:url(#SVGID_4_);}
	.st5{fill:url(#SVGID_5_);}
	.st6{fill:url(#SVGID_6_);}
</style>
<g id="ourline">
	<g>
		<path class="st0" d="M120.7,17.2L120.7,17.2L105.5,10c0,0-0.1-0.1-0.3-0.1s-0.3,0.1-0.3,0.1l-15.2,7.2l0,0c-0.1,0-0.4,0.2-0.4,0.6
			v16c0,0.3,0.2,0.5,0.4,0.6l0,0l15.2,7.2l0,0c0.1,0,0.2,0.1,0.3,0.1s0.2,0,0.3-0.1l0,0l15.2-7.2l0,0c0.2-0.1,0.4-0.4,0.4-0.6v-16
			C121.1,17.7,121,17.3,120.7,17.2z M113.2,15.2L98.7,22v7.1l-2.2-0.9v-7.5l14.3-6.7L113.2,15.2z M105.2,11.4l3.9,1.9l-13.5,6.4
			l-3.9-1.9L105.2,11.4z M104.5,39.8l-13.8-6.5V19l4.3,2.1v7.6c0,0.3,0.2,0.6,0.5,0.7l0,0l3.6,1.4c-0.2-0.1,0.1,0.1,0.3,0.1
			c0.4,0,0.7-0.3,0.7-0.7v-6.7l4.3,2.1L104.5,39.8L104.5,39.8z M105.2,24.3l-4-1.9l13.6-6.4l3.8,1.8L105.2,24.3z M119.7,33.3
			l-13.8,6.5V25.5l13.7-6.5L119.7,33.3L119.7,33.3z"/>
	</g>
</g>
<linearGradient id="SVGID_1_" gradientUnits="userSpaceOnUse" x1="28.0597" y1="28.2944" x2="19.5517" y2="21.8219">
	<stop  offset="0" style="stop-color:#22B5AB"/>
	<stop  offset="0.5751" style="stop-color:#0F8A81"/>
	<stop  offset="1" style="stop-color:#00685F"/>
</linearGradient>
<rect x="17.1" y="20.5" class="st1" width="10.7" height="7"/>
<linearGradient id="SVGID_2_" gradientUnits="userSpaceOnUse" x1="36.422" y1="28.9271" x2="23.4242" y2="24.2732">
	<stop  offset="0" style="stop-color:#22B5AB"/>
	<stop  offset="0.4976" style="stop-color:#129187"/>
	<stop  offset="1" style="stop-color:#00685F"/>
</linearGradient>
<path class="st2" d="M24.1,27.3v11.8l11.7-5.2c2.4-1.1,4-3.5,4-6.2V15.5l-11.8,5.7C25.6,22.3,24.1,24.7,24.1,27.3z"/>
<linearGradient id="SVGID_3_" gradientUnits="userSpaceOnUse" x1="8.074" y1="27.254" x2="24.1661" y2="27.254">
	<stop  offset="0" style="stop-color:#22B5AB"/>
	<stop  offset="0.4976" style="stop-color:#129187"/>
	<stop  offset="1" style="stop-color:#00685F"/>
</linearGradient>
<path class="st3" d="M11.3,33.5l12.8,5.6V26.4c0-2.1-1.2-4-3.1-4.9l-13-6.1v13.1C8.1,30.7,9.3,32.6,11.3,33.5z"/>
<linearGradient id="SVGID_4_" gradientUnits="userSpaceOnUse" x1="8.074" y1="15.4938" x2="39.7553" y2="15.4938">
	<stop  offset="0" style="stop-color:#22B5AB"/>
	<stop  offset="0.4976" style="stop-color:#129187"/>
	<stop  offset="1" style="stop-color:#00685F"/>
</linearGradient>
<path class="st4" d="M21.5,9.2L8.1,15.4l13.5,6.4c1.7,0.8,3.6,0.8,5.2,0l13-6.3l-13-6.3C25.1,8.4,23.2,8.4,21.5,9.2z"/>
<linearGradient id="SVGID_5_" gradientUnits="userSpaceOnUse" x1="13.4863" y1="15.5547" x2="34.6414" y2="15.5547">
	<stop  offset="0" style="stop-color:#9DDBE3"/>
	<stop  offset="0.3981" style="stop-color:#C1E8EC"/>
	<stop  offset="1" style="stop-color:#FFFFFA"/>
</linearGradient>
<polygon class="st5" points="29.6,10.6 13.5,18.1 18.6,20.5 34.6,13 "/>
<linearGradient id="SVGID_6_" gradientUnits="userSpaceOnUse" x1="15.8682" y1="24.4711" x2="16.4001" y2="20.0204">
	<stop  offset="0" style="stop-color:#9DDBE3"/>
	<stop  offset="0.3981" style="stop-color:#C1E8EC"/>
	<stop  offset="1" style="stop-color:#FFFFFA"/>
</linearGradient>
<path class="st6" d="M18.6,27.5v-7l-5.1-2.4v6.7c0,1.1,0.7,2.2,1.7,2.7l2,1C17.9,28.7,18.6,28.3,18.6,27.5z"/>
</svg>
