<?xml version="1.0" encoding="utf-8"?>
<!-- Generator: Adobe Illustrator 23.0.0, SVG Export Plug-In . SVG Version: 6.00 Build 0)  -->
<svg version="1.1" id="Layer_1" xmlns="http://www.w3.org/2000/svg" xmlns:xlink="http://www.w3.org/1999/xlink" x="0px" y="0px"
	 viewBox="0 0 48 48" style="enable-background:new 0 0 48 48;" xml:space="preserve">
<style type="text/css">
	.st0{fill:#384D68;}
</style>
<g id="ourline">
	<g>
		<path class="st0" d="M39.5,15.4L39.5,15.4L24.3,8.2c0,0-0.1-0.1-0.3-0.1s-0.3,0.1-0.3,0.1L8.5,15.4c0,0,0,0,0,0
			c-0.1,0-0.4,0.2-0.4,0.6V32c0,0.3,0.2,0.5,0.4,0.6l0,0l15.2,7.2l0,0c0.1,0,0.2,0.1,0.3,0.1s0.2,0,0.3-0.1l0,0l15.2-7.2l0,0
			c0.2-0.1,0.4-0.4,0.4-0.6V16C39.9,15.9,39.8,15.5,39.5,15.4z M32,13.4l-14.5,6.8v7.1l-2.2-0.9v-7.5l14.3-6.7L32,13.4z M24,9.6
			l3.9,1.9l-13.5,6.4L10.5,16L24,9.6z M23.3,38L9.5,31.5V17.2l4.3,2.1v7.6c0,0.3,0.2,0.6,0.5,0.7l0,0l3.6,1.4
			c-0.2-0.1,0.1,0.1,0.3,0.1c0.4,0,0.7-0.3,0.7-0.7v-6.7l4.3,2.1V38z M24,22.5l-4-1.9l13.6-6.4l3.8,1.8L24,22.5z M38.5,31.5L24.7,38
			V23.7l13.7-6.5V31.5z"/>
	</g>
</g>
</svg>
