<?xml version="1.0" encoding="utf-8"?>
<!-- Generator: Adobe Illustrator 23.0.0, SVG Export Plug-In . SVG Version: 6.00 Build 0)  -->
<svg version="1.1" id="Layer_1" xmlns="http://www.w3.org/2000/svg" xmlns:xlink="http://www.w3.org/1999/xlink" x="0px" y="0px"
	 viewBox="0 0 48 48" style="enable-background:new 0 0 48 48;" xml:space="preserve">
<style type="text/css">
	.st0{fill:#384D68;}
</style>
<path class="st0" d="M21.3,22.1h-7.5c-0.4,0-0.7,0.3-0.7,0.7s0.3,0.7,0.7,0.7h7.5c0.4,0,0.7-0.3,0.7-0.7S21.7,22.1,21.3,22.1z
	 M38.3,32.1h-7.5V11.9c0-0.4-0.3-0.7-0.7-0.7H9.7c-0.4,0-0.7,0.3-0.7,0.7v21.5c0,2.6,2.1,4.8,4.8,4.8h20.4c2.6,0,4.8-2.1,4.8-4.8
	v-0.7C39,32.4,38.7,32.1,38.3,32.1z M13.8,36.8c-1.9,0-3.4-1.5-3.4-3.4V12.6h19.1v19.5H17.9c-0.4,0-0.7,0.3-0.7,0.7v0.7
	C17.2,35.3,15.7,36.8,13.8,36.8z M34.2,36.8H17.1c0.9-0.9,1.4-2.1,1.4-3.4h19.1C37.6,35.3,36.1,36.8,34.2,36.8z M28.1,18.7v-4.1
	c0-0.4-0.3-0.7-0.7-0.7h-15c-0.4,0-0.7,0.3-0.7,0.7v4.1c0,0.4,0.3,0.7,0.7,0.7h15C27.8,19.4,28.1,19.1,28.1,18.7z M19.2,17.4
	c0,0.4-0.3,0.7-0.7,0.7h-5.4v-2.7h5.4c0.4,0,0.7,0.3,0.7,0.7V17.4z M26.7,18.1h-5.4c-0.4,0-0.7-0.3-0.7-0.7V16
	c0-0.4,0.3-0.7,0.7-0.7h5.4V18.1z M18.6,26.3c0-0.4-0.3-0.7-0.7-0.7h-4.1c-0.4,0-0.7,0.3-0.7,0.7c0,0.4,0.3,0.7,0.7,0.7h4.1
	C18.3,26.9,18.6,26.6,18.6,26.3z"/>
</svg>
