<?xml version="1.0" encoding="utf-8"?>
<!-- Generator: Adobe Illustrator 23.0.0, SVG Export Plug-In . SVG Version: 6.00 Build 0)  -->
<svg version="1.1" id="Layer_1" xmlns="http://www.w3.org/2000/svg" xmlns:xlink="http://www.w3.org/1999/xlink" x="0px" y="0px"
	 viewBox="0 0 48 48" style="enable-background:new 0 0 48 48;" xml:space="preserve">
<style type="text/css">
	.st0{fill:#384D68;}
	.st1{fill:url(#SVGID_1_);}
	.st2{fill:url(#SVGID_2_);}
	.st3{opacity:0.69;fill:url(#SVGID_3_);}
	.st4{opacity:0.69;fill:url(#SVGID_4_);}
</style>
<g id="outline_45_">
	<g>
		<path class="st0" d="M127.4,21.8c0.4,0,0.7-0.3,0.7-0.7s-0.3-0.7-0.7-0.7s-0.7,0.3-0.7,0.7S127,21.8,127.4,21.8z M139.9,17.4
			h-20.6c-0.4,0-0.7,0.3-0.7,0.7v11.7c0,0.4,0.3,0.7,0.7,0.7h20.5c0.4,0,0.7-0.3,0.7-0.7V18.1C140.6,17.7,140.3,17.4,139.9,17.4z
			 M139.1,25.2l-3.8-3.8l0,0c-0.1-0.2-0.3-0.3-0.5-0.3c-0.2,0-0.4,0.1-0.5,0.3l0,0l-4.9,4.9H126c-0.4,0-0.7,0.3-0.7,0.7
			c0,0.4,0.3,0.7,0.7,0.7h3.6c0.2,0,0.4-0.1,0.5-0.3l0,0l4.6-4.6l4.4,4.4v1.9h-19v-2.9c0.2,0,0.4-0.1,0.5-0.2l3.1-3.1l2.4,2.4
			c0.1,0.1,0.3,0.2,0.5,0.2c0.4,0,0.7-0.3,0.7-0.7c0-0.2-0.1-0.4-0.2-0.5l-2.9-2.9c-0.1-0.1-0.3-0.2-0.5-0.2c-0.2,0-0.4,0.1-0.5,0.2
			l-3.1,3.1v-5.6h19.1v6.3H139.1z M145,14.5c0.4,0,0.7-0.3,0.7-0.7V13c0-0.4-0.3-0.7-0.7-0.7h-1.5c-0.4,0-0.7,0.3-0.7,0.7
			c-0.3,0.9-1.2,1.5-2.2,1.5s-1.9-0.6-2.2-1.5c0-0.4-0.3-0.7-0.7-0.7h-1.5c-0.4,0-0.7,0.3-0.7,0.7c-0.3,0.9-1.2,1.5-2.2,1.5
			s-1.9-0.6-2.2-1.5c0-0.4-0.3-0.7-0.7-0.7h-1.5c-0.4,0-0.7,0.3-0.7,0.7c-0.3,0.9-1.2,1.5-2.2,1.5s-1.9-0.6-2.2-1.5
			c0-0.4-0.3-0.7-0.7-0.7h-1.5c-0.4,0-0.7,0.3-0.7,0.7c-0.3,0.9-1.2,1.5-2.2,1.5s-1.9-0.6-2.2-1.5c0-0.4-0.3-0.7-0.7-0.7h-1.6
			c-0.4,0-0.7,0.3-0.7,0.7v0.7c0,0.4,0.3,0.7,0.7,0.7c0.9,0.3,1.5,1.2,1.5,2.2s-0.6,1.9-1.5,2.2c-0.4,0-0.7,0.3-0.7,0.7V21
			c0,0.4,0.3,0.7,0.7,0.7c0.9,0.3,1.5,1.2,1.5,2.2s-0.6,1.9-1.5,2.2c-0.4,0-0.7,0.3-0.7,0.7v1.5c0,0.6,0.9,0.8,0.8,0.8
			c0.8,0.3,1.4,1.2,1.4,2.2c0,1-0.6,1.9-1.5,2.2c-0.4,0-0.7,0.3-0.7,0.7V35c0,0.4,0.3,0.7,0.7,0.7h1.5c0.4,0,0.7-0.3,0.7-0.7
			c0.3-0.8,1.3-1.5,2.2-1.5c1,0,1.9,0.6,2.2,1.5c0,0.4,0.3,0.7,0.7,0.7h1.5c0.4,0,0.7-0.3,0.7-0.7c0.3-0.8,1.2-1.5,2.2-1.5
			c0.9,0,1.9,0.6,2.2,1.5c0,0.4,0.3,0.7,0.7,0.7h1.5c0.4,0,0.7-0.3,0.7-0.7c0.3-0.9,1.2-1.5,2.2-1.5s1.9,0.6,2.2,1.5
			c0,0.4,0.3,0.7,0.7,0.7h1.5c0.4,0,0.7-0.3,0.7-0.7c0.3-0.8,1.3-1.5,2.2-1.5c0.9,0,1.9,0.6,2.2,1.5c0,0.4,0.3,0.7,0.7,0.7h1.5
			c0.4,0,0.7-0.3,0.7-0.7v-0.7c0-0.4-0.3-0.7-0.7-0.7c-0.8-0.3-1.5-1.3-1.5-2.2c0-1,0.6-1.9,1.5-2.2c0.4,0,0.7-0.3,0.7-0.7V27
			c0-0.4-0.3-0.7-0.7-0.7c-0.8-0.3-1.5-1.3-1.5-2.2c0-0.9,0.6-1.9,1.5-2.2c0.4,0,0.7-0.3,0.7-0.7v-1.5c0-0.4-0.3-0.7-0.7-0.7
			c-0.8-0.3-1.5-1.3-1.5-2.2C143.5,15.7,144.1,14.8,145,14.5z M144.3,20.3c-1.6,0.2-2.2,2.8-2.2,3.7c0,0.8,0.6,3.3,2.2,3.7
			c-2.7,0.6-2.2,4.4-2.2,4.4c-2.3-0.4-4.9,0.6-5.1,2.2c-0.2-1.6-2.7-2.2-3.7-2.2s-3.4,0.6-3.7,2.2c-0.3-1.6-2.8-2.2-3.7-2.2
			s-3.5,0.6-3.7,2.2c-0.3-1.6-2.8-2.8-5.1-2.2c-0.3-1.7-0.6-4.1-2.2-4.4c1.6-0.3,2.2-2.8,2.2-3.7c0-0.9-0.5-3.5-2.2-3.7
			c1.7-0.2,2.6-1.8,2.2-4.4c2.3,0.4,4.8-0.5,5.1-2.2c0.3,1.7,2.7,2.2,3.7,2.2s3.4-0.6,3.7-2.2c0.2,1.6,2.7,2.2,3.7,2.2
			s3.4-0.6,3.7-2.2c0.3,1.6,2.7,2.6,5.1,2.2C141.6,18.3,142.6,20.1,144.3,20.3z"/>
	</g>
</g>
<linearGradient id="SVGID_1_" gradientUnits="userSpaceOnUse" x1="8.8065" y1="24.3384" x2="39.1936" y2="24.3384">
	<stop  offset="0" style="stop-color:#22B5AB"/>
	<stop  offset="0.4976" style="stop-color:#129187"/>
	<stop  offset="1" style="stop-color:#00685F"/>
</linearGradient>
<path class="st1" d="M39.2,16.2v-1.9c-1.1,0-1.9-0.9-1.9-2h-2.3c-0.3,0.7-1,1.1-1.8,1.1c-0.8,0-1.4-0.5-1.8-1.1h0h-0.2h-2.3h0h0
	c-0.3,0.7-1,1.1-1.8,1.1c-0.8,0-1.4-0.5-1.8-1.1h0h-2.3h-0.2c-0.3,0.7-1,1.1-1.8,1.1c-0.8,0-1.4-0.5-1.8-1.1h-2.6
	c-0.3,0.7-1,1.1-1.8,1.1c-0.8,0-1.4-0.5-1.8-1.1h-2.3c0,1.1-0.9,2-1.9,2v1.9c0.7,0.3,1.2,1,1.2,1.9S9.5,19.7,8.8,20v0.5v1.9v0
	c0.7,0.3,1.2,1,1.2,1.9c0,0.8-0.5,1.6-1.2,1.9v0v1.9v0.5c0.7,0.3,1.2,1,1.2,1.9c0,0.8-0.5,1.6-1.2,1.9v1.9c1.1,0,1.9,0.9,1.9,2h2.4
	c0.4-0.6,1-1,1.7-1c0.7,0,1.3,0.4,1.7,1h2.7c0.4-0.6,1-1,1.7-1c0.7,0,1.3,0.4,1.7,1h0.3h2.4h0c0.4-0.6,1-1,1.7-1
	c0.7,0,1.3,0.4,1.7,1h0h0h2.4h0.3h0c0.4-0.6,1-1,1.7-1c0.7,0,1.3,0.4,1.7,1h2.4c0-1.1,0.9-2,1.9-2v-1.9c-0.8-0.3-1.3-1-1.3-1.9
	c0-0.9,0.6-1.6,1.3-1.9v-0.5v-1.9v0c-0.8-0.3-1.3-1-1.3-1.9c0-0.9,0.6-1.6,1.3-1.9v0v-1.9V20c-0.8-0.3-1.3-1-1.3-1.9
	S38.4,16.5,39.2,16.2z"/>
<linearGradient id="SVGID_2_" gradientUnits="userSpaceOnUse" x1="12.3269" y1="28.7048" x2="37.2448" y2="19.5147">
	<stop  offset="0" style="stop-color:#9DDBE3"/>
	<stop  offset="0.3981" style="stop-color:#C1E8EC"/>
	<stop  offset="1" style="stop-color:#FFFFFA"/>
</linearGradient>
<path class="st2" d="M31.6,32.8H11.7v-12c0-2.6,2.1-4.7,4.7-4.7h19.9v12C36.3,30.7,34.2,32.8,31.6,32.8z"/>
<linearGradient id="SVGID_3_" gradientUnits="userSpaceOnUse" x1="24.0597" y1="31.3269" x2="23.8614" y2="21.1622">
	<stop  offset="0" style="stop-color:#22B5AB"/>
	<stop  offset="0.4976" style="stop-color:#129187"/>
	<stop  offset="1" style="stop-color:#00685F"/>
</linearGradient>
<path class="st3" d="M36.3,28.1v-2.7l-4.2-4.2l-9.3,9.3L16.3,24l-4.6,4.6v4.1h20C34.3,32.8,36.3,30.7,36.3,28.1z"/>
<linearGradient id="SVGID_4_" gradientUnits="userSpaceOnUse" x1="21.383" y1="22.1698" x2="22.1207" y2="19.112">
	<stop  offset="0" style="stop-color:#22B5AB"/>
	<stop  offset="0.4976" style="stop-color:#129187"/>
	<stop  offset="1" style="stop-color:#00685F"/>
</linearGradient>
<circle class="st4" cx="21.7" cy="21" r="1.7"/>
</svg>
