<?xml version="1.0" encoding="utf-8"?>
<!-- Generator: Adobe Illustrator 23.0.0, SVG Export Plug-In . SVG Version: 6.00 Build 0)  -->
<svg version="1.1" id="Layer_1" xmlns="http://www.w3.org/2000/svg" xmlns:xlink="http://www.w3.org/1999/xlink" x="0px" y="0px"
	 viewBox="0 0 48 48" style="enable-background:new 0 0 48 48;" xml:space="preserve">
<style type="text/css">
	.st0{fill:#384D68;}
</style>
<g id="outline_45_">
	<g>
		<path class="st0" d="M21.8,21.8c0.4,0,0.7-0.3,0.7-0.7s-0.3-0.7-0.7-0.7s-0.7,0.3-0.7,0.7S21.4,21.8,21.8,21.8z M34.3,17.4H13.7
			c-0.4,0-0.7,0.3-0.7,0.7v11.7c0,0.4,0.3,0.7,0.7,0.7h20.5c0.4,0,0.7-0.3,0.7-0.7V18.1C35,17.7,34.7,17.4,34.3,17.4z M33.5,25.2
			l-3.8-3.8l0,0c-0.1-0.2-0.3-0.3-0.5-0.3c-0.2,0-0.4,0.1-0.5,0.3l0,0l-4.9,4.9h-3.4c-0.4,0-0.7,0.3-0.7,0.7c0,0.4,0.3,0.7,0.7,0.7
			H24c0.2,0,0.4-0.1,0.5-0.3l0,0l4.6-4.6l4.4,4.4v1.9H14.5v-2.9c0.2,0,0.4-0.1,0.5-0.2l3.1-3.1l2.4,2.4c0.1,0.1,0.3,0.2,0.5,0.2
			c0.4,0,0.7-0.3,0.7-0.7c0-0.2-0.1-0.4-0.2-0.5l-2.9-2.9c-0.1-0.1-0.3-0.2-0.5-0.2c-0.2,0-0.4,0.1-0.5,0.2l-3.1,3.1v-5.6h19.1V25.2
			z M39.4,14.5c0.4,0,0.7-0.3,0.7-0.7V13c0-0.4-0.3-0.7-0.7-0.7h-1.5c-0.4,0-0.7,0.3-0.7,0.7c-0.3,0.9-1.2,1.5-2.2,1.5
			c-1,0-1.9-0.6-2.2-1.5c0-0.4-0.3-0.7-0.7-0.7h-1.5c-0.4,0-0.7,0.3-0.7,0.7c-0.3,0.9-1.2,1.5-2.2,1.5c-1,0-1.9-0.6-2.2-1.5
			c0-0.4-0.3-0.7-0.7-0.7h-1.5c-0.4,0-0.7,0.3-0.7,0.7c-0.3,0.9-1.2,1.5-2.2,1.5c-1,0-1.9-0.6-2.2-1.5c0-0.4-0.3-0.7-0.7-0.7h-1.5
			c-0.4,0-0.7,0.3-0.7,0.7c-0.3,0.9-1.2,1.5-2.2,1.5c-1,0-1.9-0.6-2.2-1.5c0-0.4-0.3-0.7-0.7-0.7H8.6c-0.4,0-0.7,0.3-0.7,0.7v0.7
			c0,0.4,0.3,0.7,0.7,0.7c0.9,0.3,1.5,1.2,1.5,2.2c0,1-0.6,1.9-1.5,2.2c-0.4,0-0.7,0.3-0.7,0.7v1.5c0,0.4,0.3,0.7,0.7,0.7
			c0.9,0.3,1.5,1.2,1.5,2.2s-0.6,1.9-1.5,2.2c-0.4,0-0.7,0.3-0.7,0.7v1.5c0,0.6,0.9,0.8,0.8,0.8c0.8,0.3,1.4,1.2,1.4,2.2
			c0,1-0.6,1.9-1.5,2.2c-0.4,0-0.7,0.3-0.7,0.7V35c0,0.4,0.3,0.7,0.7,0.7h1.5c0.4,0,0.7-0.3,0.7-0.7c0.3-0.8,1.3-1.5,2.2-1.5
			c1,0,1.9,0.6,2.2,1.5c0,0.4,0.3,0.7,0.7,0.7h1.5c0.4,0,0.7-0.3,0.7-0.7c0.3-0.8,1.2-1.5,2.2-1.5c0.9,0,1.9,0.6,2.2,1.5
			c0,0.4,0.3,0.7,0.7,0.7h1.5c0.4,0,0.7-0.3,0.7-0.7c0.3-0.9,1.2-1.5,2.2-1.5c1,0,1.9,0.6,2.2,1.5c0,0.4,0.3,0.7,0.7,0.7h1.5
			c0.4,0,0.7-0.3,0.7-0.7c0.3-0.8,1.3-1.5,2.2-1.5c0.9,0,1.9,0.6,2.2,1.5c0,0.4,0.3,0.7,0.7,0.7h1.5c0.4,0,0.7-0.3,0.7-0.7v-0.7
			c0-0.4-0.3-0.7-0.7-0.7c-0.8-0.3-1.5-1.3-1.5-2.2c0-1,0.6-1.9,1.5-2.2c0.4,0,0.7-0.3,0.7-0.7v-1.5c0-0.4-0.3-0.7-0.7-0.7
			c-0.8-0.3-1.5-1.3-1.5-2.2c0-0.9,0.6-1.9,1.5-2.2c0.4,0,0.7-0.3,0.7-0.7v-1.5c0-0.4-0.3-0.7-0.7-0.7c-0.8-0.3-1.5-1.3-1.5-2.2
			C37.9,15.7,38.5,14.8,39.4,14.5z M38.7,20.3c-1.6,0.2-2.2,2.8-2.2,3.7c0,0.8,0.6,3.3,2.2,3.7c-2.7,0.6-2.2,4.4-2.2,4.4
			c-2.3-0.4-4.9,0.6-5.1,2.2c-0.2-1.6-2.7-2.2-3.7-2.2c-1,0-3.4,0.6-3.7,2.2c-0.3-1.6-2.8-2.2-3.7-2.2c-0.9,0-3.5,0.6-3.7,2.2
			c-0.3-1.6-2.8-2.8-5.1-2.2c-0.3-1.7-0.6-4.1-2.2-4.4c1.6-0.3,2.2-2.8,2.2-3.7c0-0.9-0.5-3.5-2.2-3.7c1.7-0.2,2.6-1.8,2.2-4.4
			c2.3,0.4,4.8-0.5,5.1-2.2c0.3,1.7,2.7,2.2,3.7,2.2c1,0,3.4-0.6,3.7-2.2c0.2,1.6,2.7,2.2,3.7,2.2s3.4-0.6,3.7-2.2
			c0.3,1.6,2.7,2.6,5.1,2.2C36,18.3,37,20.1,38.7,20.3z"/>
	</g>
</g>
</svg>
