<?xml version="1.0" encoding="UTF-8"?>
<svg width="153px" height="153px" viewBox="0 0 153 153" version="1.1" xmlns="http://www.w3.org/2000/svg" xmlns:xlink="http://www.w3.org/1999/xlink">
    <!-- Generator: Sketch 40.1 (33804) - http://www.bohemiancoding.com/sketch -->
    <title>Group</title>
    <desc>Created with Sketch.</desc>
    <defs></defs>
    <g id="Page-1" stroke="none" stroke-width="1" fill="none" fill-rule="evenodd">
        <g id="设置-copy" transform="translate(-1339.000000, -246.000000)">
            <g id="Group" transform="translate(1339.000000, 246.000000)">
                <rect id="Rectangle-52" fill="#F7F7F7" x="0" y="0" width="153" height="153"></rect>
                <g id="用户" transform="translate(47.000000, 42.000000)" fill="#E0E0E0">
                    <path d="M36.6077004,68.5091638 L22.9747939,68.5091638 C10.140681,68.5091638 0.00158613719,68.5091638 0.00158613719,61.9848834 L0.00158613719,60.6416492 C0.00158613719,48.1614733 10.3057812,38.0107034 22.9747939,38.0107034 L36.6077004,38.0107034 C49.2767131,38.0107034 59.5833361,48.1639023 59.5833361,60.6416492 L59.5833361,61.9848834 C59.5833361,68.5091638 48.9368009,68.5091638 36.6077004,68.5091638 L36.6077004,68.5091638 Z M29.1102088,36.283688 C19.0779435,36.283688 10.9151952,28.2364278 10.9151952,18.3479894 C10.9151952,8.45955102 19.0779435,0.412290793 29.1102088,0.412290793 C39.1424741,0.412290793 47.3052225,8.45712202 47.3052225,18.3479894 C47.3052225,28.2388568 39.1424741,36.283688 29.1102088,36.283688 L29.1102088,36.283688 Z" id="Shape"></path>
                </g>
            </g>
        </g>
    </g>
</svg>